<mxfile host="65bd71144e">
    <diagram id="G-sLq0d55iG927SIHQj-" name="Page-1">
        <mxGraphModel dx="1004" dy="795" grid="1" gridSize="10" guides="1" tooltips="1" connect="1" arrows="1" fold="1" page="1" pageScale="1" pageWidth="850" pageHeight="1100" math="0" shadow="0">
            <root>
                <mxCell id="0"/>
                <mxCell id="1" parent="0"/>
                <mxCell id="14" value="Full Transaction Simulation" style="rounded=1;whiteSpace=wrap;html=1;fillColor=#e1d5e7;strokeColor=#9673a6;verticalAlign=top;fontSize=16;" vertex="1" parent="1">
                    <mxGeometry y="160" width="780" height="230" as="geometry"/>
                </mxCell>
                <mxCell id="11" value="AXI to AIB converter&lt;div&gt;Leader&lt;/div&gt;" style="rounded=1;whiteSpace=wrap;html=1;fillColor=#fff2cc;strokeColor=#d6b656;verticalAlign=top;fontSize=16;" vertex="1" parent="1">
                    <mxGeometry x="20" y="210" width="320" height="160" as="geometry"/>
                </mxCell>
                <mxCell id="13" value="AIB to AXI converter&lt;div&gt;Follower&lt;/div&gt;" style="rounded=1;whiteSpace=wrap;html=1;fillColor=#fff2cc;strokeColor=#d6b656;verticalAlign=top;fontSize=16;" vertex="1" parent="1">
                    <mxGeometry x="440" y="210" width="320" height="160" as="geometry"/>
                </mxCell>
                <mxCell id="4" value="" style="edgeStyle=none;html=1;" edge="1" parent="1" source="2" target="3">
                    <mxGeometry relative="1" as="geometry"/>
                </mxCell>
                <mxCell id="2" value="AXI&lt;div&gt;Leader&lt;/div&gt;" style="rounded=1;whiteSpace=wrap;html=1;fillColor=#f8cecc;strokeColor=#b85450;horizontal=1;verticalAlign=top;fontSize=16;" vertex="1" parent="1">
                    <mxGeometry x="40" y="270" width="120" height="80" as="geometry"/>
                </mxCell>
                <mxCell id="6" value="" style="edgeStyle=none;html=1;" edge="1" parent="1" source="3" target="5">
                    <mxGeometry relative="1" as="geometry"/>
                </mxCell>
                <mxCell id="3" value="AIB&lt;div&gt;Leader&lt;/div&gt;" style="rounded=1;whiteSpace=wrap;html=1;fillColor=#e1d5e7;strokeColor=#9673a6;horizontal=1;verticalAlign=top;fontSize=16;" vertex="1" parent="1">
                    <mxGeometry x="200" y="270" width="120" height="80" as="geometry"/>
                </mxCell>
                <mxCell id="8" value="" style="edgeStyle=none;html=1;" edge="1" parent="1" source="5" target="7">
                    <mxGeometry relative="1" as="geometry"/>
                </mxCell>
                <mxCell id="5" value="EMIB" style="rounded=1;whiteSpace=wrap;html=1;fillColor=#dae8fc;strokeColor=#6c8ebf;horizontal=1;verticalAlign=top;fontSize=16;" vertex="1" parent="1">
                    <mxGeometry x="360" y="250" width="60" height="120" as="geometry"/>
                </mxCell>
                <mxCell id="10" value="" style="edgeStyle=none;html=1;" edge="1" parent="1" source="7" target="9">
                    <mxGeometry relative="1" as="geometry"/>
                </mxCell>
                <mxCell id="7" value="AIB&lt;div&gt;Follower&lt;/div&gt;" style="rounded=1;whiteSpace=wrap;html=1;fillColor=#e1d5e7;strokeColor=#9673a6;horizontal=1;verticalAlign=top;fontSize=16;" vertex="1" parent="1">
                    <mxGeometry x="460" y="270" width="120" height="80" as="geometry"/>
                </mxCell>
                <mxCell id="9" value="AXI&lt;div&gt;Follower&lt;/div&gt;" style="rounded=1;whiteSpace=wrap;html=1;fillColor=#f8cecc;strokeColor=#b85450;horizontal=1;verticalAlign=top;fontSize=16;" vertex="1" parent="1">
                    <mxGeometry x="620" y="270" width="120" height="80" as="geometry"/>
                </mxCell>
            </root>
        </mxGraphModel>
    </diagram>
</mxfile>